<?xml version="1.0" encoding="utf-8"?>
<!-- Generator: Adobe Illustrator 16.0.0, SVG Export Plug-In . SVG Version: 6.00 Build 0)  -->
<!DOCTYPE svg PUBLIC "-//W3C//DTD SVG 1.1//EN" "http://www.w3.org/Graphics/SVG/1.1/DTD/svg11.dtd">
<svg version="1.1" id="Layer_1" xmlns="http://www.w3.org/2000/svg" xmlns:xlink="http://www.w3.org/1999/xlink" x="0px" y="0px"
	 width="30px" height="21px" viewBox="5 9.5 30 21" enable-background="new 5 9.5 30 21" xml:space="preserve">
<path d="M35,12c0,1.381-1.119,2.5-2.5,2.5h-25C6.119,14.5,5,13.381,5,12l0,0c0-1.381,1.119-2.5,2.5-2.5h25
	C33.881,9.5,35,10.619,35,12L35,12z"/>
<path d="M35,20c0,1.381-1.119,2.5-2.5,2.5h-25C6.119,22.5,5,21.381,5,20l0,0c0-1.381,1.119-2.5,2.5-2.5h25
	C33.881,17.5,35,18.619,35,20L35,20z"/>
<path d="M35,28c0,1.381-1.119,2.5-2.5,2.5h-25C6.119,30.5,5,29.381,5,28l0,0c0-1.381,1.119-2.5,2.5-2.5h25
	C33.881,25.5,35,26.619,35,28L35,28z"/>
</svg>
